<svg width="30" height="21" viewBox="0 0 30 21" fill="none" xmlns="http://www.w3.org/2000/svg">
<path d="M3.06753 7.2874C3.41914 7.05054 3.89597 6.91748 4.39315 6.91748C4.89034 6.91748 5.36716 7.05054 5.71878 7.2874L15 13.5414L24.2813 7.2874C24.6349 7.05725 25.1085 6.9299 25.6002 6.93278C26.0918 6.93566 26.562 7.06854 26.9097 7.30279C27.2573 7.53704 27.4545 7.85393 27.4588 8.1852C27.4631 8.51647 27.2741 8.83562 26.9325 9.0739L16.3257 16.2212C15.974 16.458 15.4972 16.5911 15 16.5911C14.5028 16.5911 14.026 16.458 13.6744 16.2212L3.06753 9.0739C2.71602 8.83697 2.51855 8.51567 2.51855 8.18065C2.51855 7.84563 2.71602 7.52433 3.06753 7.2874Z" fill="#0779E4"/>
</svg>
