<svg width="30" height="30" viewBox="0 0 30 30" fill="none" xmlns="http://www.w3.org/2000/svg">
<path d="M3.06753 20.0757C3.41914 20.4272 3.89597 20.6246 4.39315 20.6246C4.89034 20.6246 5.36716 20.4272 5.71878 20.0757L15 10.7944L24.2813 20.0757C24.6349 20.4172 25.1085 20.6062 25.6002 20.6019C26.0918 20.5976 26.5621 20.4005 26.9097 20.0528C27.2573 19.7052 27.4545 19.2349 27.4588 18.7433C27.4631 18.2517 27.2741 17.778 26.9325 17.4244L16.3257 6.81753C15.974 6.46602 15.4972 6.26855 15 6.26855C14.5028 6.26855 14.026 6.46602 13.6744 6.81753L3.06753 17.4244C2.71602 17.776 2.51855 18.2528 2.51855 18.75C2.51855 19.2472 2.71602 19.724 3.06753 20.0757V20.0757Z" fill="#0779E4"/>
</svg>
